<svg width="53" height="71" viewBox="0 0 53 71" fill="none" xmlns="http://www.w3.org/2000/svg">
<path d="M26.5 69.25L26.1371 69.594L26.5 69.9768L26.8629 69.594L26.5 69.25ZM26.5 69.25C26.8629 69.594 26.863 69.5938 26.8633 69.5935L26.8643 69.5925L26.8679 69.5887L26.8818 69.574L26.9359 69.5164C26.9834 69.4657 27.0537 69.3905 27.1451 69.2918C27.328 69.0945 27.5957 68.8033 27.9362 68.4268C28.617 67.6738 29.5887 66.5791 30.7544 65.2104C33.0852 62.4736 36.194 58.6383 39.3039 54.246C42.4127 49.8551 45.5294 44.8981 47.8705 39.9183C50.2083 34.9456 51.7917 29.9108 51.7917 25.375C51.7917 12.0152 40.4594 1.25 26.5 1.25C12.5406 1.25 1.20834 12.0152 1.20834 25.375C1.20834 29.9108 2.79175 34.9456 5.12954 39.9183C7.47065 44.8981 10.5873 49.8551 13.6961 54.246C16.806 58.6383 19.9148 62.4736 22.2456 65.2104C23.4113 66.5791 24.383 67.6738 25.0638 68.4268C25.4043 68.8033 25.672 69.0945 25.8549 69.2918C25.9463 69.3905 26.0166 69.4657 26.0641 69.5164L26.1182 69.574L26.1321 69.5887L26.1357 69.5925L26.1367 69.5935C26.137 69.5938 26.1371 69.594 26.5 69.25ZM26.5 33.3125C21.8657 33.3125 18.1458 29.7339 18.1458 25.375C18.1458 21.0161 21.8657 17.4375 26.5 17.4375C31.1343 17.4375 34.8542 21.0161 34.8542 25.375C34.8542 29.7339 31.1343 33.3125 26.5 33.3125Z" fill="#B47644" stroke="#111725"/>
</svg>
